<svg width="29" height="27" viewBox="0 0 29 27" fill="none" xmlns="http://www.w3.org/2000/svg">
<mask id="mask0_1_169" style="mask-type:luminance" maskUnits="userSpaceOnUse" x="0" y="0" width="29" height="27">
<path d="M0 0H28.7655V26.3255H0V0Z" fill="white"/>
</mask>
<g mask="url(#mask0_1_169)">
<path d="M11.1787 11.4108C20.5848 11.1636 27.9853 15.6042 28.3613 24.5244C28.4368 26.2749 28.3031 26.4093 26.4675 26.4093C21.637 26.4151 16.8066 26.4209 11.9825 26.4093C4.86975 26.392 0.567826 22.69 0.242232 16.0436C0.0062944 11.1578 0.114825 6.26192 0.0582005 1.37179C0.0456171 0.552189 0.30043 0.0534903 1.28193 0.0650543C7.08127 0.147448 12.8995 -0.0404673 18.6737 0.375837C24.0137 0.763232 27.9146 4.11824 28.5453 8.55159C28.9338 11.2749 28.6161 14.0864 28.6161 17.2795C28.2008 16.2012 27.9334 15.4929 27.6535 14.7832C25.5505 9.51863 21.3177 6.74183 15.3658 6.7187C13.1732 6.70713 10.9742 6.72448 8.78317 6.71292C8.01087 6.70713 7.399 6.84735 7.41788 7.732C7.47608 10.3382 7.30463 12.9676 7.65382 15.5391C8.22164 19.6805 12.9703 21.4729 16.6855 19.124C18.4503 18.0052 18.8262 15.7271 17.2392 14.3972C16.1051 13.449 14.6454 12.8332 13.3006 12.1249C12.7721 11.8502 12.1539 11.7331 11.1787 11.4108Z" fill="#c9983a"/>
</g>
</svg>
