<svg xmlns="http://www.w3.org/2000/svg" xmlns:xlink="http://www.w3.org/1999/xlink" width="500" zoomAndPan="magnify" viewBox="0 0 375 374.999991" height="500" preserveAspectRatio="xMidYMid meet" version="1.0"><defs><g/><clipPath id="e2987c169b"><path d="M 151.5625 128 L 223 128 L 223 199.140625 L 151.5625 199.140625 Z M 151.5625 128 " clip-rule="nonzero"/></clipPath></defs><rect x="-37.5" width="450" fill="#ffffff" y="-37.499999" height="449.999989" fill-opacity="1"/><rect x="-37.5" width="450" fill="#ffffff" y="-37.499999" height="449.999989" fill-opacity="1"/><g fill="#282828" fill-opacity="1"><g transform="translate(117.461903, 234.485464)"><g><path d="M 10.46875 0.25 C 9.125 0.25 7.878906 0.03125 6.734375 -0.40625 C 5.597656 -0.84375 4.613281 -1.476562 3.78125 -2.3125 C 2.945312 -3.144531 2.296875 -4.148438 1.828125 -5.328125 C 1.367188 -6.503906 1.140625 -7.816406 1.140625 -9.265625 C 1.140625 -10.734375 1.375 -12.0625 1.84375 -13.25 C 2.3125 -14.4375 2.972656 -15.445312 3.828125 -16.28125 C 4.691406 -17.113281 5.703125 -17.753906 6.859375 -18.203125 C 8.023438 -18.648438 9.289062 -18.875 10.65625 -18.875 C 11.851562 -18.875 12.972656 -18.703125 14.015625 -18.359375 C 15.054688 -18.015625 15.988281 -17.519531 16.8125 -16.875 C 17.632812 -16.226562 18.316406 -15.4375 18.859375 -14.5 L 15.546875 -12.71875 C 15.015625 -13.664062 14.328125 -14.367188 13.484375 -14.828125 C 12.640625 -15.285156 11.695312 -15.515625 10.65625 -15.515625 C 9.851562 -15.515625 9.109375 -15.378906 8.421875 -15.109375 C 7.734375 -14.835938 7.132812 -14.4375 6.625 -13.90625 C 6.113281 -13.382812 5.71875 -12.742188 5.4375 -11.984375 C 5.15625 -11.222656 5.015625 -10.347656 5.015625 -9.359375 C 5.015625 -8.097656 5.25 -7 5.71875 -6.0625 C 6.195312 -5.125 6.867188 -4.394531 7.734375 -3.875 C 8.609375 -3.363281 9.628906 -3.109375 10.796875 -3.109375 C 11.597656 -3.109375 12.351562 -3.242188 13.0625 -3.515625 C 13.769531 -3.796875 14.375 -4.222656 14.875 -4.796875 C 15.382812 -5.367188 15.726562 -6.109375 15.90625 -7.015625 L 10.8125 -7.015625 L 10.8125 -10.109375 L 19.5625 -10.109375 L 19.5625 0 L 16.515625 0 L 16.515625 -2.578125 C 15.921875 -1.691406 15.117188 -1 14.109375 -0.5 C 13.109375 0 11.894531 0.25 10.46875 0.25 Z M 10.46875 0.25 "/></g></g></g><g fill="#282828" fill-opacity="1"><g transform="translate(138.611397, 234.485464)"><g><path d="M 12.234375 0 L 7.90625 -6.875 L 6.28125 -6.875 L 6.28125 0 L 2.40625 0 L 2.40625 -18.625 L 8.53125 -18.625 C 9.320312 -18.625 10 -18.585938 10.5625 -18.515625 C 11.125 -18.453125 11.609375 -18.363281 12.015625 -18.25 C 12.429688 -18.132812 12.800781 -17.992188 13.125 -17.828125 C 14.03125 -17.347656 14.679688 -16.679688 15.078125 -15.828125 C 15.484375 -14.972656 15.6875 -13.992188 15.6875 -12.890625 C 15.6875 -11.722656 15.476562 -10.691406 15.0625 -9.796875 C 14.65625 -8.898438 13.984375 -8.203125 13.046875 -7.703125 C 12.703125 -7.515625 12.304688 -7.359375 11.859375 -7.234375 L 16.8125 0 Z M 6.28125 -15.390625 L 6.28125 -9.90625 L 7.984375 -9.90625 C 8.722656 -9.90625 9.3125 -9.929688 9.75 -9.984375 C 10.1875 -10.046875 10.550781 -10.175781 10.84375 -10.375 C 11.476562 -10.8125 11.796875 -11.566406 11.796875 -12.640625 C 11.796875 -13.160156 11.71875 -13.601562 11.5625 -13.96875 C 11.40625 -14.332031 11.191406 -14.625 10.921875 -14.84375 C 10.617188 -15.070312 10.238281 -15.21875 9.78125 -15.28125 C 9.332031 -15.351562 8.734375 -15.390625 7.984375 -15.390625 Z M 6.28125 -15.390625 "/></g></g></g><g fill="#282828" fill-opacity="1"><g transform="translate(156.115763, 234.485464)"><g><path d="M 14.875 0 L 13.515625 -3.84375 L 5.703125 -3.84375 L 4.34375 0 L 0.390625 0 L 7.234375 -18.625 L 11.96875 -18.625 L 18.828125 0 Z M 6.828125 -7.078125 L 12.390625 -7.078125 L 9.609375 -14.96875 Z M 6.828125 -7.078125 "/></g></g></g><g fill="#282828" fill-opacity="1"><g transform="translate(175.320332, 234.485464)"><g><path d="M 2.40625 0 L 2.40625 -18.625 L 6.28125 -18.625 L 6.28125 0 Z M 2.40625 0 "/></g></g></g><g fill="#282828" fill-opacity="1"><g transform="translate(183.988797, 234.485464)"><g><path d="M 15.125 -18.625 L 18.984375 -18.625 L 18.984375 0 L 14.515625 0 L 6.265625 -13.3125 L 6.265625 0 L 2.40625 0 L 2.40625 -18.625 L 6.828125 -18.625 L 15.125 -5.390625 Z M 15.125 -18.625 "/></g></g></g><g fill="#282828" fill-opacity="1"><g transform="translate(205.370135, 234.485464)"><g><path d="M 6.28125 -3.421875 L 12.109375 -3.421875 L 12.109375 0 L 2.40625 0 L 2.40625 -18.625 L 6.28125 -18.625 Z M 6.28125 -3.421875 "/></g></g></g><g fill="#282828" fill-opacity="1"><g transform="translate(218.018613, 234.485464)"><g><path d="M 2.40625 0 L 2.40625 -18.625 L 6.28125 -18.625 L 6.28125 0 Z M 2.40625 0 "/></g></g></g><g fill="#282828" fill-opacity="1"><g transform="translate(226.687077, 234.485464)"><g><path d="M 13.390625 -15.21875 L 6.296875 -15.21875 L 6.296875 -10.984375 L 12.421875 -10.984375 L 12.421875 -7.625 L 6.296875 -7.625 L 6.296875 0 L 2.40625 0 L 2.40625 -18.625 L 13.390625 -18.625 Z M 13.390625 -15.21875 "/></g></g></g><g fill="#282828" fill-opacity="1"><g transform="translate(240.958477, 234.485464)"><g><path d="M 6.375 0 L 6.375 -8.84375 L 0.21875 -18.625 L 4.5 -18.625 L 8.296875 -12.3125 L 12.109375 -18.625 L 16.375 -18.625 L 10.25 -8.890625 L 10.25 0 Z M 6.375 0 "/></g></g></g><g fill="#282828" fill-opacity="1"><g transform="translate(129.656634, 254.270331)"><g><path d="M 7.890625 -10.34375 C 8.679688 -9.84375 9.078125 -9 9.078125 -7.8125 C 9.078125 -7.21875 8.984375 -6.6875 8.796875 -6.21875 C 8.609375 -5.757812 8.328125 -5.382812 7.953125 -5.09375 C 7.328125 -4.550781 6.378906 -4.28125 5.109375 -4.28125 L 3.125 -4.28125 L 3.125 0 L 1.734375 0 L 1.734375 -11 L 5.109375 -11 C 6.335938 -11 7.265625 -10.78125 7.890625 -10.34375 Z M 7.078125 -6.09375 C 7.265625 -6.269531 7.40625 -6.492188 7.5 -6.765625 C 7.59375 -7.035156 7.640625 -7.363281 7.640625 -7.75 C 7.640625 -8.125 7.585938 -8.4375 7.484375 -8.6875 C 7.378906 -8.945312 7.238281 -9.15625 7.0625 -9.3125 C 6.820312 -9.5 6.523438 -9.625 6.171875 -9.6875 C 5.828125 -9.757812 5.414062 -9.796875 4.9375 -9.796875 L 3.125 -9.796875 L 3.125 -5.5 L 4.9375 -5.5 C 5.425781 -5.5 5.847656 -5.539062 6.203125 -5.625 C 6.566406 -5.71875 6.859375 -5.875 7.078125 -6.09375 Z M 7.078125 -6.09375 "/></g></g></g><g fill="#282828" fill-opacity="1"><g transform="translate(140.674547, 254.270331)"><g><path d="M 5.5 0.15625 C 4.9375 0.15625 4.410156 0.0703125 3.921875 -0.09375 C 3.441406 -0.269531 3.019531 -0.519531 2.65625 -0.84375 C 2.289062 -1.164062 2.003906 -1.5625 1.796875 -2.03125 C 1.597656 -2.507812 1.5 -3.050781 1.5 -3.65625 L 1.5 -11 L 2.90625 -11 L 2.90625 -3.84375 C 2.90625 -3.226562 3.019531 -2.71875 3.25 -2.3125 C 3.476562 -1.914062 3.785156 -1.617188 4.171875 -1.421875 C 4.566406 -1.222656 5.007812 -1.125 5.5 -1.125 C 5.988281 -1.125 6.425781 -1.222656 6.8125 -1.421875 C 7.207031 -1.628906 7.519531 -1.929688 7.75 -2.328125 C 7.988281 -2.734375 8.109375 -3.238281 8.109375 -3.84375 L 8.109375 -11 L 9.515625 -11 L 9.515625 -3.65625 C 9.515625 -3.050781 9.410156 -2.507812 9.203125 -2.03125 C 9.003906 -1.5625 8.722656 -1.164062 8.359375 -0.84375 C 7.992188 -0.519531 7.566406 -0.269531 7.078125 -0.09375 C 6.585938 0.0703125 6.0625 0.15625 5.5 0.15625 Z M 5.5 0.15625 "/></g></g></g><g fill="#282828" fill-opacity="1"><g transform="translate(152.87967, 254.270331)"><g><path d="M 9.3125 0 L 7.6875 0 L 5.203125 -4.28125 L 3.125 -4.28125 L 3.125 0 L 1.734375 0 L 1.734375 -11 L 5.109375 -11 C 6.335938 -11 7.265625 -10.78125 7.890625 -10.34375 C 8.679688 -9.84375 9.078125 -9 9.078125 -7.8125 C 9.078125 -7.21875 8.984375 -6.6875 8.796875 -6.21875 C 8.609375 -5.757812 8.328125 -5.382812 7.953125 -5.09375 C 7.773438 -4.9375 7.570312 -4.800781 7.34375 -4.6875 C 7.113281 -4.582031 6.859375 -4.492188 6.578125 -4.421875 Z M 3.125 -9.796875 L 3.125 -5.5 L 4.9375 -5.5 C 5.425781 -5.5 5.847656 -5.539062 6.203125 -5.625 C 6.566406 -5.71875 6.859375 -5.875 7.078125 -6.09375 C 7.265625 -6.269531 7.40625 -6.492188 7.5 -6.765625 C 7.59375 -7.035156 7.640625 -7.363281 7.640625 -7.75 C 7.640625 -8.125 7.585938 -8.4375 7.484375 -8.6875 C 7.378906 -8.945312 7.238281 -9.15625 7.0625 -9.3125 C 6.820312 -9.5 6.523438 -9.625 6.171875 -9.6875 C 5.828125 -9.757812 5.414062 -9.796875 4.9375 -9.796875 Z M 3.125 -9.796875 "/></g></g></g><g fill="#282828" fill-opacity="1"><g transform="translate(164.256871, 254.270331)"><g><path d="M 7.625 -9.734375 L 3.15625 -9.734375 L 3.15625 -6.125 L 7.09375 -6.125 L 7.09375 -4.875 L 3.15625 -4.875 L 3.15625 -1.28125 L 7.625 -1.28125 L 7.625 0 L 1.734375 0 L 1.734375 -11 L 7.625 -11 Z M 7.625 -9.734375 "/></g></g></g><g fill="#282828" fill-opacity="1"><g transform="translate(174.032894, 254.270331)"><g/></g></g><g fill="#282828" fill-opacity="1"><g transform="translate(179.388122, 254.270331)"><g><path d="M 1.734375 0 L 1.734375 -11 L 3.125 -11 L 3.125 0 Z M 1.734375 0 "/></g></g></g><g fill="#282828" fill-opacity="1"><g transform="translate(185.438499, 254.270331)"><g><path d="M 13.359375 0 L 12 0 L 11.265625 -9.078125 L 7.75 0 L 6.921875 0 L 3.421875 -9.046875 L 2.6875 0 L 1.3125 0 L 2.15625 -11 L 4 -11 L 7.328125 -2.421875 L 10.671875 -11 L 12.53125 -11 Z M 13.359375 0 "/></g></g></g><g fill="#282828" fill-opacity="1"><g transform="translate(201.306784, 254.270331)"><g><path d="M 7.890625 -10.34375 C 8.679688 -9.84375 9.078125 -9 9.078125 -7.8125 C 9.078125 -7.21875 8.984375 -6.6875 8.796875 -6.21875 C 8.609375 -5.757812 8.328125 -5.382812 7.953125 -5.09375 C 7.328125 -4.550781 6.378906 -4.28125 5.109375 -4.28125 L 3.125 -4.28125 L 3.125 0 L 1.734375 0 L 1.734375 -11 L 5.109375 -11 C 6.335938 -11 7.265625 -10.78125 7.890625 -10.34375 Z M 7.078125 -6.09375 C 7.265625 -6.269531 7.40625 -6.492188 7.5 -6.765625 C 7.59375 -7.035156 7.640625 -7.363281 7.640625 -7.75 C 7.640625 -8.125 7.585938 -8.4375 7.484375 -8.6875 C 7.378906 -8.945312 7.238281 -9.15625 7.0625 -9.3125 C 6.820312 -9.5 6.523438 -9.625 6.171875 -9.6875 C 5.828125 -9.757812 5.414062 -9.796875 4.9375 -9.796875 L 3.125 -9.796875 L 3.125 -5.5 L 4.9375 -5.5 C 5.425781 -5.5 5.847656 -5.539062 6.203125 -5.625 C 6.566406 -5.71875 6.859375 -5.875 7.078125 -6.09375 Z M 7.078125 -6.09375 "/></g></g></g><g fill="#282828" fill-opacity="1"><g transform="translate(212.324697, 254.270331)"><g><path d="M 8.796875 0 L 7.84375 -2.640625 L 2.875 -2.640625 L 1.9375 0 L 0.46875 0 L 4.53125 -11 L 6.203125 -11 L 10.25 0 Z M 3.3125 -3.875 L 7.40625 -3.875 L 5.359375 -9.59375 Z M 3.3125 -3.875 "/></g></g></g><g fill="#282828" fill-opacity="1"><g transform="translate(224.240822, 254.270331)"><g><path d="M 6.4375 0.15625 C 5.664062 0.15625 4.945312 0.0234375 4.28125 -0.234375 C 3.613281 -0.492188 3.03125 -0.867188 2.53125 -1.359375 C 2.039062 -1.847656 1.65625 -2.441406 1.375 -3.140625 C 1.101562 -3.835938 0.96875 -4.628906 0.96875 -5.515625 C 0.96875 -6.390625 1.101562 -7.175781 1.375 -7.875 C 1.65625 -8.570312 2.039062 -9.160156 2.53125 -9.640625 C 3.03125 -10.128906 3.613281 -10.503906 4.28125 -10.765625 C 4.945312 -11.023438 5.664062 -11.15625 6.4375 -11.15625 C 7.164062 -11.15625 7.84375 -11.035156 8.46875 -10.796875 C 9.101562 -10.566406 9.660156 -10.234375 10.140625 -9.796875 C 10.628906 -9.367188 11.015625 -8.847656 11.296875 -8.234375 L 10.015625 -7.703125 C 9.785156 -8.148438 9.488281 -8.53125 9.125 -8.84375 C 8.769531 -9.164062 8.363281 -9.40625 7.90625 -9.5625 C 7.457031 -9.726562 6.96875 -9.8125 6.4375 -9.8125 C 5.875 -9.8125 5.34375 -9.71875 4.84375 -9.53125 C 4.351562 -9.34375 3.921875 -9.0625 3.546875 -8.6875 C 3.171875 -8.320312 2.878906 -7.875 2.671875 -7.34375 C 2.460938 -6.8125 2.359375 -6.203125 2.359375 -5.515625 C 2.359375 -4.828125 2.460938 -4.210938 2.671875 -3.671875 C 2.878906 -3.140625 3.171875 -2.6875 3.546875 -2.3125 C 3.921875 -1.945312 4.351562 -1.664062 4.84375 -1.46875 C 5.34375 -1.28125 5.875 -1.1875 6.4375 -1.1875 C 6.96875 -1.1875 7.457031 -1.265625 7.90625 -1.421875 C 8.363281 -1.585938 8.769531 -1.828125 9.125 -2.140625 C 9.488281 -2.460938 9.785156 -2.847656 10.015625 -3.296875 L 11.296875 -2.78125 C 11.015625 -2.164062 10.628906 -1.640625 10.140625 -1.203125 C 9.660156 -0.765625 9.101562 -0.425781 8.46875 -0.1875 C 7.84375 0.0390625 7.164062 0.15625 6.4375 0.15625 Z M 6.4375 0.15625 "/></g></g></g><g fill="#282828" fill-opacity="1"><g transform="translate(237.406642, 254.270331)"><g><path d="M 7.484375 -11 L 7.484375 -9.734375 L 4.65625 -9.734375 L 4.65625 0 L 3.265625 0 L 3.265625 -9.734375 L 0.4375 -9.734375 L 0.4375 -11 Z M 7.484375 -11 "/></g></g></g><g clip-path="url(#e2987c169b)"><path fill="#ffc926" d="M 179.324219 158.835938 C 202.683594 158.167969 221.0625 170.167969 221.996094 194.273438 C 222.183594 199.003906 221.851562 199.367188 217.292969 199.367188 C 205.296875 199.382812 193.300781 199.398438 181.320312 199.367188 C 163.65625 199.320312 152.972656 189.316406 152.164062 171.355469 C 151.578125 158.152344 151.847656 144.921875 151.707031 131.707031 C 151.675781 129.492188 152.308594 128.144531 154.746094 128.175781 C 169.148438 128.398438 183.597656 127.890625 197.9375 129.015625 C 211.199219 130.0625 220.886719 139.128906 222.453125 151.109375 C 223.417969 158.46875 222.628906 166.066406 222.628906 174.695312 C 221.597656 171.78125 220.933594 169.867188 220.238281 167.949219 C 215.015625 153.722656 204.503906 146.21875 189.722656 146.15625 C 184.277344 146.125 178.816406 146.171875 173.375 146.140625 C 171.457031 146.125 169.9375 146.503906 169.984375 148.894531 C 170.128906 155.9375 169.703125 163.042969 170.570312 169.992188 C 171.980469 181.183594 183.773438 186.027344 193 179.679688 C 197.382812 176.65625 198.316406 170.5 194.375 166.90625 C 191.558594 164.34375 187.933594 162.679688 184.59375 160.765625 C 183.28125 160.023438 181.746094 159.707031 179.324219 158.835938 Z M 179.324219 158.835938 " fill-opacity="1" fill-rule="nonzero"/></g></svg>