<?xml version="1.0" encoding="UTF-8" standalone="no"?><svg xmlns="http://www.w3.org/2000/svg" xmlns:xlink="http://www.w3.org/1999/xlink" contentScriptType="application/ecmascript" contentStyleType="text/css" height="998px" preserveAspectRatio="none" style="width:2925px;height:998px;background:#EEEBDC;" version="1.1" viewBox="0 0 2925 998" width="2925px" zoomAndPan="magnify"><defs><filter height="300%" id="f1i9g8pesebz34" width="300%" x="-1" y="-1"><feGaussianBlur result="blurOut" stdDeviation="2.0"/><feColorMatrix in="blurOut" result="blurOut2" type="matrix" values="0 0 0 0 0 0 0 0 0 0 0 0 0 0 0 0 0 0 .4 0"/><feOffset dx="4.0" dy="4.0" in="blurOut2" result="blurOut3"/><feBlend in="SourceGraphic" in2="blurOut3" mode="normal"/></filter></defs><g><text fill="#000000" font-family="sans-serif" font-size="18" lengthAdjust="spacingAndGlyphs" textLength="283" x="1324" y="20.8799">OpenClaw 系统架构 - 米粒儿配置版</text><!--MD5=[b915ea8f9ac88f19776b7c3de6891013]
cluster 用户层--><polygon fill="#EEEBDC" filter="url(#f1i9g8pesebz34)" points="310,50.5638,358,50.5638,365,76.8357,555,76.8357,555,265.5638,310,265.5638,310,50.5638" style="stroke: #000000; stroke-width: 1.5;"/><line style="stroke: #000000; stroke-width: 1.5;" x1="310" x2="365" y1="76.8357" y2="76.8357"/><text fill="#000000" font-family="sans-serif" font-size="14" font-weight="bold" lengthAdjust="spacingAndGlyphs" textLength="42" x="314" y="68.8038">用户层</text><!--MD5=[7f1b494080605dc5be9862ae2bef4c1e]
cluster OpenClaw Gateway--><polygon fill="#EEEBDC" filter="url(#f1i9g8pesebz34)" points="22,289.5638,161,289.5638,168,315.8357,816,315.8357,816,947.0638,22,947.0638,22,289.5638" style="stroke: #000000; stroke-width: 1.5;"/><line style="stroke: #000000; stroke-width: 1.5;" x1="22" x2="168" y1="315.8357" y2="315.8357"/><text fill="#000000" font-family="sans-serif" font-size="14" font-weight="bold" lengthAdjust="spacingAndGlyphs" textLength="133" x="26" y="307.8038">OpenClaw Gateway</text><!--MD5=[719f263b8da5b9a1c478fca47ea27575]
cluster Session--><rect fill="#EEEBDC" filter="url(#f1i9g8pesebz34)" height="121" style="stroke: #000000; stroke-width: 1.5;" width="353" x="423" y="344.5638"/><rect fill="#EEEBDC" height="10" style="stroke: #000000; stroke-width: 1.5;" width="15" x="756" y="349.5638"/><rect fill="#EEEBDC" height="2" style="stroke: #000000; stroke-width: 1.5;" width="4" x="754" y="351.5638"/><rect fill="#EEEBDC" height="2" style="stroke: #000000; stroke-width: 1.5;" width="4" x="754" y="355.5638"/><text fill="#000000" font-family="sans-serif" font-size="14" font-weight="bold" lengthAdjust="spacingAndGlyphs" textLength="56" x="571.5" y="373.8038">会话管理</text><!--MD5=[f17443f0ecb9b2febdd2636ca17f7002]
cluster ModelSwitch--><rect fill="#EEEBDC" filter="url(#f1i9g8pesebz34)" height="121" style="stroke: #000000; stroke-width: 1.5;" width="322" x="54" y="505.5638"/><rect fill="#EEEBDC" height="10" style="stroke: #000000; stroke-width: 1.5;" width="15" x="356" y="510.5638"/><rect fill="#EEEBDC" height="2" style="stroke: #000000; stroke-width: 1.5;" width="4" x="354" y="512.5638"/><rect fill="#EEEBDC" height="2" style="stroke: #000000; stroke-width: 1.5;" width="4" x="354" y="516.5638"/><text fill="#000000" font-family="sans-serif" font-size="14" font-weight="bold" lengthAdjust="spacingAndGlyphs" textLength="84" x="173" y="534.8038">智能模型切换</text><!--MD5=[0825a9722806d7849b96c872f72d595f]
cluster Tools--><rect fill="#EEEBDC" filter="url(#f1i9g8pesebz34)" height="248.5" style="stroke: #000000; stroke-width: 1.5;" width="378" x="54" y="666.5638"/><rect fill="#EEEBDC" height="10" style="stroke: #000000; stroke-width: 1.5;" width="15" x="412" y="671.5638"/><rect fill="#EEEBDC" height="2" style="stroke: #000000; stroke-width: 1.5;" width="4" x="410" y="673.5638"/><rect fill="#EEEBDC" height="2" style="stroke: #000000; stroke-width: 1.5;" width="4" x="410" y="677.5638"/><text fill="#000000" font-family="sans-serif" font-size="14" font-weight="bold" lengthAdjust="spacingAndGlyphs" textLength="56" x="215" y="695.8038">工具系统</text><!--MD5=[ec29bf733c9a888c706d12ee3b55f0db]
cluster ContextMgr--><rect fill="#EEEBDC" filter="url(#f1i9g8pesebz34)" height="121" style="stroke: #000000; stroke-width: 1.5;" width="368" x="416" y="505.5638"/><rect fill="#EEEBDC" height="10" style="stroke: #000000; stroke-width: 1.5;" width="15" x="764" y="510.5638"/><rect fill="#EEEBDC" height="2" style="stroke: #000000; stroke-width: 1.5;" width="4" x="762" y="512.5638"/><rect fill="#EEEBDC" height="2" style="stroke: #000000; stroke-width: 1.5;" width="4" x="762" y="516.5638"/><text fill="#000000" font-family="sans-serif" font-size="14" font-weight="bold" lengthAdjust="spacingAndGlyphs" textLength="149" x="525.5" y="534.8038">Context Manager v2.2</text><!--MD5=[15b7c97f26ec00e1c104e88da985be72]
cluster 技能系统 (21 个)--><polygon fill="#EEEBDC" filter="url(#f1i9g8pesebz34)" points="1544,513.5638,1652,513.5638,1659,539.8357,2611,539.8357,2611,907.0638,1544,907.0638,1544,513.5638" style="stroke: #000000; stroke-width: 1.5;"/><line style="stroke: #000000; stroke-width: 1.5;" x1="1544" x2="1659" y1="539.8357" y2="539.8357"/><text fill="#000000" font-family="sans-serif" font-size="14" font-weight="bold" lengthAdjust="spacingAndGlyphs" textLength="102" x="1548" y="531.8038">技能系统 (21 个)</text><!--MD5=[6e16e77d0b354c2c3c2848af41d85b32]
cluster 记忆系统--><polygon fill="#EEEBDC" filter="url(#f1i9g8pesebz34)" points="1003,675.0638,1065,675.0638,1072,701.3357,1520,701.3357,1520,779.0638,1003,779.0638,1003,675.0638" style="stroke: #000000; stroke-width: 1.5;"/><line style="stroke: #000000; stroke-width: 1.5;" x1="1003" x2="1072" y1="701.3357" y2="701.3357"/><text fill="#000000" font-family="sans-serif" font-size="14" font-weight="bold" lengthAdjust="spacingAndGlyphs" textLength="56" x="1007" y="693.3038">记忆系统</text><!--MD5=[dd1adbc83ec8a9b9e77f5678547e2f37]
cluster 自动化系统--><polygon fill="#EEEBDC" filter="url(#f1i9g8pesebz34)" points="1558,160.5638,1634,160.5638,1641,186.8357,1734,186.8357,1734,457.5638,1558,457.5638,1558,160.5638" style="stroke: #000000; stroke-width: 1.5;"/><line style="stroke: #000000; stroke-width: 1.5;" x1="1558" x2="1641" y1="186.8357" y2="186.8357"/><text fill="#000000" font-family="sans-serif" font-size="14" font-weight="bold" lengthAdjust="spacingAndGlyphs" textLength="70" x="1562" y="178.8038">自动化系统</text><!--MD5=[fee662a292a0353a69bd162820bae93b]
entity User--><rect fill="#FEFECE" filter="url(#f1i9g8pesebz34)" height="50.2719" style="stroke: #A80036; stroke-width: 1.5;" width="68" x="397" y="89.5638"/><rect fill="#FEFECE" height="10" style="stroke: #A80036; stroke-width: 1.5;" width="15" x="445" y="94.5638"/><rect fill="#FEFECE" height="2" style="stroke: #A80036; stroke-width: 1.5;" width="4" x="443" y="96.5638"/><rect fill="#FEFECE" height="2" style="stroke: #A80036; stroke-width: 1.5;" width="4" x="443" y="100.5638"/><text fill="#000000" font-family="sans-serif" font-size="14" lengthAdjust="spacingAndGlyphs" textLength="28" x="412" y="125.8038">官家</text><!--MD5=[a80e707e76de8c569ac4b620e9874b41]
entity QQ--><rect fill="#FEFECE" filter="url(#f1i9g8pesebz34)" height="50.2719" style="stroke: #A80036; stroke-width: 1.5;" width="85" x="326.5" y="199.5638"/><rect fill="#FEFECE" height="10" style="stroke: #A80036; stroke-width: 1.5;" width="15" x="391.5" y="204.5638"/><rect fill="#FEFECE" height="2" style="stroke: #A80036; stroke-width: 1.5;" width="4" x="389.5" y="206.5638"/><rect fill="#FEFECE" height="2" style="stroke: #A80036; stroke-width: 1.5;" width="4" x="389.5" y="210.5638"/><text fill="#000000" font-family="sans-serif" font-size="14" lengthAdjust="spacingAndGlyphs" textLength="45" x="341.5" y="235.8038">QQ Bot</text><!--MD5=[a557692c081a86be99f0983deff4abb4]
entity Feishu--><rect fill="#FEFECE" filter="url(#f1i9g8pesebz34)" height="50.2719" style="stroke: #A80036; stroke-width: 1.5;" width="93" x="446.5" y="199.5638"/><rect fill="#FEFECE" height="10" style="stroke: #A80036; stroke-width: 1.5;" width="15" x="519.5" y="204.5638"/><rect fill="#FEFECE" height="2" style="stroke: #A80036; stroke-width: 1.5;" width="4" x="517.5" y="206.5638"/><rect fill="#FEFECE" height="2" style="stroke: #A80036; stroke-width: 1.5;" width="4" x="517.5" y="210.5638"/><text fill="#000000" font-family="sans-serif" font-size="14" lengthAdjust="spacingAndGlyphs" textLength="53" x="461.5" y="235.8038">飞书 Bot</text><!--MD5=[10410b83dc06cb33eece393becce75c9]
entity MainSession--><rect fill="#FEFECE" filter="url(#f1i9g8pesebz34)" height="50.2719" style="stroke: #A80036; stroke-width: 1.5;" width="119" x="632.5" y="391.5638"/><rect fill="#FEFECE" height="10" style="stroke: #A80036; stroke-width: 1.5;" width="15" x="731.5" y="396.5638"/><rect fill="#FEFECE" height="2" style="stroke: #A80036; stroke-width: 1.5;" width="4" x="729.5" y="398.5638"/><rect fill="#FEFECE" height="2" style="stroke: #A80036; stroke-width: 1.5;" width="4" x="729.5" y="402.5638"/><text fill="#000000" font-family="sans-serif" font-size="14" lengthAdjust="spacingAndGlyphs" textLength="79" x="647.5" y="427.8038">主会话 main</text><!--MD5=[bab3a83cc0c7eac4a4362194927e5063]
entity WorkSession--><rect fill="#FEFECE" filter="url(#f1i9g8pesebz34)" height="50.2719" style="stroke: #A80036; stroke-width: 1.5;" width="131" x="466.5" y="391.5638"/><rect fill="#FEFECE" height="10" style="stroke: #A80036; stroke-width: 1.5;" width="15" x="577.5" y="396.5638"/><rect fill="#FEFECE" height="2" style="stroke: #A80036; stroke-width: 1.5;" width="4" x="575.5" y="398.5638"/><rect fill="#FEFECE" height="2" style="stroke: #A80036; stroke-width: 1.5;" width="4" x="575.5" y="402.5638"/><text fill="#000000" font-family="sans-serif" font-size="14" lengthAdjust="spacingAndGlyphs" textLength="91" x="481.5" y="427.8038">工作会话 work</text><!--MD5=[7d99b61c282be732ef8b1f22722ecf91]
entity Complexity--><rect fill="#FEFECE" filter="url(#f1i9g8pesebz34)" height="50.2719" style="stroke: #A80036; stroke-width: 1.5;" width="110" x="242" y="552.5638"/><rect fill="#FEFECE" height="10" style="stroke: #A80036; stroke-width: 1.5;" width="15" x="332" y="557.5638"/><rect fill="#FEFECE" height="2" style="stroke: #A80036; stroke-width: 1.5;" width="4" x="330" y="559.5638"/><rect fill="#FEFECE" height="2" style="stroke: #A80036; stroke-width: 1.5;" width="4" x="330" y="563.5638"/><text fill="#000000" font-family="sans-serif" font-size="14" lengthAdjust="spacingAndGlyphs" textLength="70" x="257" y="588.8038">复杂度分析</text><!--MD5=[28c4b1840d159633bc7b085bbf652bbd]
entity ContextMonitor--><rect fill="#FEFECE" filter="url(#f1i9g8pesebz34)" height="50.2719" style="stroke: #A80036; stroke-width: 1.5;" width="110" x="97" y="552.5638"/><rect fill="#FEFECE" height="10" style="stroke: #A80036; stroke-width: 1.5;" width="15" x="187" y="557.5638"/><rect fill="#FEFECE" height="2" style="stroke: #A80036; stroke-width: 1.5;" width="4" x="185" y="559.5638"/><rect fill="#FEFECE" height="2" style="stroke: #A80036; stroke-width: 1.5;" width="4" x="185" y="563.5638"/><text fill="#000000" font-family="sans-serif" font-size="14" lengthAdjust="spacingAndGlyphs" textLength="70" x="112" y="588.8038">上下文监控</text><!--MD5=[53fd5677fd3b9b67672a4cac954f4c1e]
entity FileTools--><rect fill="#FEFECE" filter="url(#f1i9g8pesebz34)" height="50.2719" style="stroke: #A80036; stroke-width: 1.5;" width="139" x="107.5" y="713.5638"/><rect fill="#FEFECE" height="10" style="stroke: #A80036; stroke-width: 1.5;" width="15" x="226.5" y="718.5638"/><rect fill="#FEFECE" height="2" style="stroke: #A80036; stroke-width: 1.5;" width="4" x="224.5" y="720.5638"/><rect fill="#FEFECE" height="2" style="stroke: #A80036; stroke-width: 1.5;" width="4" x="224.5" y="724.5638"/><text fill="#000000" font-family="sans-serif" font-size="14" lengthAdjust="spacingAndGlyphs" textLength="99" x="122.5" y="749.8038">read/write/edit</text><!--MD5=[66bdaf6d0391e650555ebdb730ddea49]
entity ShellTools--><rect fill="#FEFECE" filter="url(#f1i9g8pesebz34)" height="50.2719" style="stroke: #A80036; stroke-width: 1.5;" width="126" x="282" y="713.5638"/><rect fill="#FEFECE" height="10" style="stroke: #A80036; stroke-width: 1.5;" width="15" x="388" y="718.5638"/><rect fill="#FEFECE" height="2" style="stroke: #A80036; stroke-width: 1.5;" width="4" x="386" y="720.5638"/><rect fill="#FEFECE" height="2" style="stroke: #A80036; stroke-width: 1.5;" width="4" x="386" y="724.5638"/><text fill="#000000" font-family="sans-serif" font-size="14" lengthAdjust="spacingAndGlyphs" textLength="86" x="297" y="749.8038">exec/process</text><!--MD5=[d8ac43220c01482a7da7b728b66a4721]
entity WebTools--><rect fill="#FEFECE" filter="url(#f1i9g8pesebz34)" height="50.2719" style="stroke: #A80036; stroke-width: 1.5;" width="195" x="85.5" y="841.0638"/><rect fill="#FEFECE" height="10" style="stroke: #A80036; stroke-width: 1.5;" width="15" x="260.5" y="846.0638"/><rect fill="#FEFECE" height="2" style="stroke: #A80036; stroke-width: 1.5;" width="4" x="258.5" y="848.0638"/><rect fill="#FEFECE" height="2" style="stroke: #A80036; stroke-width: 1.5;" width="4" x="258.5" y="852.0638"/><text fill="#000000" font-family="sans-serif" font-size="14" lengthAdjust="spacingAndGlyphs" textLength="155" x="100.5" y="877.3038">web_search/web_fetch</text><!--MD5=[e9dede37b31fdda9664526f66258b036]
entity Browser--><rect fill="#FEFECE" filter="url(#f1i9g8pesebz34)" height="50.2719" style="stroke: #A80036; stroke-width: 1.5;" width="93" x="315.5" y="841.0638"/><rect fill="#FEFECE" height="10" style="stroke: #A80036; stroke-width: 1.5;" width="15" x="388.5" y="846.0638"/><rect fill="#FEFECE" height="2" style="stroke: #A80036; stroke-width: 1.5;" width="4" x="386.5" y="848.0638"/><rect fill="#FEFECE" height="2" style="stroke: #A80036; stroke-width: 1.5;" width="4" x="386.5" y="852.0638"/><text fill="#000000" font-family="sans-serif" font-size="14" lengthAdjust="spacingAndGlyphs" textLength="53" x="330.5" y="877.3038">browser</text><!--MD5=[64ec0d9d8e9734d47bf4c7cd23b329a0]
entity UsageMonitor--><rect fill="#FEFECE" filter="url(#f1i9g8pesebz34)" height="50.2719" style="stroke: #A80036; stroke-width: 1.5;" width="142" x="618" y="552.5638"/><rect fill="#FEFECE" height="10" style="stroke: #A80036; stroke-width: 1.5;" width="15" x="740" y="557.5638"/><rect fill="#FEFECE" height="2" style="stroke: #A80036; stroke-width: 1.5;" width="4" x="738" y="559.5638"/><rect fill="#FEFECE" height="2" style="stroke: #A80036; stroke-width: 1.5;" width="4" x="738" y="563.5638"/><text fill="#000000" font-family="sans-serif" font-size="14" lengthAdjust="spacingAndGlyphs" textLength="102" x="633" y="588.8038">上下文监控 60%</text><!--MD5=[74177be42392a959fb99083940f5871c]
entity AutoSwitch--><rect fill="#FEFECE" filter="url(#f1i9g8pesebz34)" height="50.2719" style="stroke: #A80036; stroke-width: 1.5;" width="124" x="459" y="552.5638"/><rect fill="#FEFECE" height="10" style="stroke: #A80036; stroke-width: 1.5;" width="15" x="563" y="557.5638"/><rect fill="#FEFECE" height="2" style="stroke: #A80036; stroke-width: 1.5;" width="4" x="561" y="559.5638"/><rect fill="#FEFECE" height="2" style="stroke: #A80036; stroke-width: 1.5;" width="4" x="561" y="563.5638"/><text fill="#000000" font-family="sans-serif" font-size="14" lengthAdjust="spacingAndGlyphs" textLength="84" x="474" y="588.8038">会话自动切换</text><!--MD5=[2a4a9f02db2d080640020709b526018d]
entity SMS--><rect fill="#FEFECE" filter="url(#f1i9g8pesebz34)" height="50.2719" style="stroke: #A80036; stroke-width: 1.5;" width="221" x="1767.5" y="552.5638"/><rect fill="#FEFECE" height="10" style="stroke: #A80036; stroke-width: 1.5;" width="15" x="1968.5" y="557.5638"/><rect fill="#FEFECE" height="2" style="stroke: #A80036; stroke-width: 1.5;" width="4" x="1966.5" y="559.5638"/><rect fill="#FEFECE" height="2" style="stroke: #A80036; stroke-width: 1.5;" width="4" x="1966.5" y="563.5638"/><text fill="#000000" font-family="sans-serif" font-size="14" lengthAdjust="spacingAndGlyphs" textLength="181" x="1782.5" y="588.8038">session-memory-enhanced</text><!--MD5=[c7d2be384c056a4d38f276f6ad1d8cb4]
entity SMMS--><rect fill="#FEFECE" filter="url(#f1i9g8pesebz34)" height="50.2719" style="stroke: #A80036; stroke-width: 1.5;" width="172" x="1560" y="552.5638"/><rect fill="#FEFECE" height="10" style="stroke: #A80036; stroke-width: 1.5;" width="15" x="1712" y="557.5638"/><rect fill="#FEFECE" height="2" style="stroke: #A80036; stroke-width: 1.5;" width="4" x="1710" y="559.5638"/><rect fill="#FEFECE" height="2" style="stroke: #A80036; stroke-width: 1.5;" width="4" x="1710" y="563.5638"/><text fill="#000000" font-family="sans-serif" font-size="14" lengthAdjust="spacingAndGlyphs" textLength="132" x="1575" y="588.8038">smart-memory-sync</text><!--MD5=[0b0aa20ff921bbd87f0d717d9e4cd2e2]
entity SMSW--><rect fill="#FEFECE" filter="url(#f1i9g8pesebz34)" height="50.2719" style="stroke: #A80036; stroke-width: 1.5;" width="173" x="2023.5" y="552.5638"/><rect fill="#FEFECE" height="10" style="stroke: #A80036; stroke-width: 1.5;" width="15" x="2176.5" y="557.5638"/><rect fill="#FEFECE" height="2" style="stroke: #A80036; stroke-width: 1.5;" width="4" x="2174.5" y="559.5638"/><rect fill="#FEFECE" height="2" style="stroke: #A80036; stroke-width: 1.5;" width="4" x="2174.5" y="563.5638"/><text fill="#000000" font-family="sans-serif" font-size="14" lengthAdjust="spacingAndGlyphs" textLength="133" x="2038.5" y="588.8038">smart-model-switch</text><!--MD5=[aea4458c28ade918e0c4cad638ff57f3]
entity ICE--><rect fill="#FEFECE" filter="url(#f1i9g8pesebz34)" height="50.2719" style="stroke: #A80036; stroke-width: 1.5;" width="200" x="2232" y="552.5638"/><rect fill="#FEFECE" height="10" style="stroke: #A80036; stroke-width: 1.5;" width="15" x="2412" y="557.5638"/><rect fill="#FEFECE" height="2" style="stroke: #A80036; stroke-width: 1.5;" width="4" x="2410" y="559.5638"/><rect fill="#FEFECE" height="2" style="stroke: #A80036; stroke-width: 1.5;" width="4" x="2410" y="563.5638"/><text fill="#000000" font-family="sans-serif" font-size="14" lengthAdjust="spacingAndGlyphs" textLength="160" x="2247" y="588.8038">image-content-extractor</text><!--MD5=[e5ffd30d2a69eddfa7aa670c78a491f8]
entity QR--><rect fill="#FEFECE" filter="url(#f1i9g8pesebz34)" height="50.2719" style="stroke: #A80036; stroke-width: 1.5;" width="127" x="2467.5" y="552.5638"/><rect fill="#FEFECE" height="10" style="stroke: #A80036; stroke-width: 1.5;" width="15" x="2574.5" y="557.5638"/><rect fill="#FEFECE" height="2" style="stroke: #A80036; stroke-width: 1.5;" width="4" x="2572.5" y="559.5638"/><rect fill="#FEFECE" height="2" style="stroke: #A80036; stroke-width: 1.5;" width="4" x="2572.5" y="563.5638"/><text fill="#000000" font-family="sans-serif" font-size="14" lengthAdjust="spacingAndGlyphs" textLength="87" x="2482.5" y="588.8038">quote-reader</text><!--MD5=[c3335de985309651a6ace572e48fcf92]
entity SR--><rect fill="#FEFECE" filter="url(#f1i9g8pesebz34)" height="50.2719" style="stroke: #A80036; stroke-width: 1.5;" width="168" x="2003" y="713.5638"/><rect fill="#FEFECE" height="10" style="stroke: #A80036; stroke-width: 1.5;" width="15" x="2151" y="718.5638"/><rect fill="#FEFECE" height="2" style="stroke: #A80036; stroke-width: 1.5;" width="4" x="2149" y="720.5638"/><rect fill="#FEFECE" height="2" style="stroke: #A80036; stroke-width: 1.5;" width="4" x="2149" y="724.5638"/><text fill="#000000" font-family="sans-serif" font-size="14" lengthAdjust="spacingAndGlyphs" textLength="128" x="2018" y="749.8038">speech-recognition</text><!--MD5=[7842cb4300efb401920d8f72ebe921e6]
entity PS--><rect fill="#FEFECE" filter="url(#f1i9g8pesebz34)" height="50.2719" style="stroke: #A80036; stroke-width: 1.5;" width="164" x="2206" y="713.5638"/><rect fill="#FEFECE" height="10" style="stroke: #A80036; stroke-width: 1.5;" width="15" x="2350" y="718.5638"/><rect fill="#FEFECE" height="2" style="stroke: #A80036; stroke-width: 1.5;" width="4" x="2348" y="720.5638"/><rect fill="#FEFECE" height="2" style="stroke: #A80036; stroke-width: 1.5;" width="4" x="2348" y="724.5638"/><text fill="#000000" font-family="sans-serif" font-size="14" lengthAdjust="spacingAndGlyphs" textLength="124" x="2221" y="749.8038">playwright-scraper</text><!--MD5=[be6b3b25342cb0b6927dc1fdd6f40769]
entity AW--><rect fill="#FEFECE" filter="url(#f1i9g8pesebz34)" height="50.2719" style="stroke: #A80036; stroke-width: 1.5;" width="189" x="2405.5" y="713.5638"/><rect fill="#FEFECE" height="10" style="stroke: #A80036; stroke-width: 1.5;" width="15" x="2574.5" y="718.5638"/><rect fill="#FEFECE" height="2" style="stroke: #A80036; stroke-width: 1.5;" width="4" x="2572.5" y="720.5638"/><rect fill="#FEFECE" height="2" style="stroke: #A80036; stroke-width: 1.5;" width="4" x="2572.5" y="724.5638"/><text fill="#000000" font-family="sans-serif" font-size="14" lengthAdjust="spacingAndGlyphs" textLength="149" x="2420.5" y="749.8038">automation-workflows</text><!--MD5=[c9093774c47dc01894266e060ce0f742]
entity QMD--><rect fill="#FEFECE" filter="url(#f1i9g8pesebz34)" height="50.2719" style="stroke: #A80036; stroke-width: 1.5;" width="71" x="2051.5" y="841.0638"/><rect fill="#FEFECE" height="10" style="stroke: #A80036; stroke-width: 1.5;" width="15" x="2102.5" y="846.0638"/><rect fill="#FEFECE" height="2" style="stroke: #A80036; stroke-width: 1.5;" width="4" x="2100.5" y="848.0638"/><rect fill="#FEFECE" height="2" style="stroke: #A80036; stroke-width: 1.5;" width="4" x="2100.5" y="852.0638"/><text fill="#000000" font-family="sans-serif" font-size="14" lengthAdjust="spacingAndGlyphs" textLength="31" x="2066.5" y="877.3038">qmd</text><!--MD5=[a8cafa7d6adc19e0d36be394ee0bf7cb]
entity Notion--><rect fill="#FEFECE" filter="url(#f1i9g8pesebz34)" height="50.2719" style="stroke: #A80036; stroke-width: 1.5;" width="83" x="2157.5" y="841.0638"/><rect fill="#FEFECE" height="10" style="stroke: #A80036; stroke-width: 1.5;" width="15" x="2220.5" y="846.0638"/><rect fill="#FEFECE" height="2" style="stroke: #A80036; stroke-width: 1.5;" width="4" x="2218.5" y="848.0638"/><rect fill="#FEFECE" height="2" style="stroke: #A80036; stroke-width: 1.5;" width="4" x="2218.5" y="852.0638"/><text fill="#000000" font-family="sans-serif" font-size="14" lengthAdjust="spacingAndGlyphs" textLength="43" x="2172.5" y="877.3038">notion</text><!--MD5=[f1588c3f406d8772dddbc0654bc4ea07]
entity Obsidian--><rect fill="#FEFECE" filter="url(#f1i9g8pesebz34)" height="50.2719" style="stroke: #A80036; stroke-width: 1.5;" width="98" x="2276" y="841.0638"/><rect fill="#FEFECE" height="10" style="stroke: #A80036; stroke-width: 1.5;" width="15" x="2354" y="846.0638"/><rect fill="#FEFECE" height="2" style="stroke: #A80036; stroke-width: 1.5;" width="4" x="2352" y="848.0638"/><rect fill="#FEFECE" height="2" style="stroke: #A80036; stroke-width: 1.5;" width="4" x="2352" y="852.0638"/><text fill="#000000" font-family="sans-serif" font-size="14" lengthAdjust="spacingAndGlyphs" textLength="58" x="2291" y="877.3038">obsidian</text><!--MD5=[8b76aae233b8e205107e8447cb395ee0]
entity LongTerm--><path d="M1166,724.0638 C1166,714.0638 1217,714.0638 1217,714.0638 C1217,714.0638 1268,714.0638 1268,724.0638 L1268,753.3357 C1268,763.3357 1217,763.3357 1217,763.3357 C1217,763.3357 1166,763.3357 1166,753.3357 L1166,724.0638 " fill="#FEFECE" filter="url(#f1i9g8pesebz34)" style="stroke: #000000; stroke-width: 1.5;"/><path d="M1166,724.0638 C1166,734.0638 1217,734.0638 1217,734.0638 C1217,734.0638 1268,734.0638 1268,724.0638 " fill="none" style="stroke: #000000; stroke-width: 1.5;"/><text fill="#000000" font-family="sans-serif" font-size="14" lengthAdjust="spacingAndGlyphs" textLength="82" x="1176" y="754.3038">MEMORY.md</text><!--MD5=[701671cf3e5f718b41e4b38a10c22a44]
entity Daily--><path d="M1019,724.0638 C1019,714.0638 1075,714.0638 1075,714.0638 C1075,714.0638 1131,714.0638 1131,724.0638 L1131,753.3357 C1131,763.3357 1075,763.3357 1075,763.3357 C1075,763.3357 1019,763.3357 1019,753.3357 L1019,724.0638 " fill="#FEFECE" filter="url(#f1i9g8pesebz34)" style="stroke: #000000; stroke-width: 1.5;"/><path d="M1019,724.0638 C1019,734.0638 1075,734.0638 1075,734.0638 C1075,734.0638 1131,734.0638 1131,724.0638 " fill="none" style="stroke: #000000; stroke-width: 1.5;"/><text fill="#000000" font-family="sans-serif" font-size="14" lengthAdjust="spacingAndGlyphs" textLength="92" x="1029" y="754.3038">memory/*.md</text><!--MD5=[c286f7d671418112dbcfaffd8ce83ed6]
entity QMDB--><path d="M1408,724.0638 C1408,714.0638 1456,714.0638 1456,714.0638 C1456,714.0638 1504,714.0638 1504,724.0638 L1504,753.3357 C1504,763.3357 1456,763.3357 1456,763.3357 C1456,763.3357 1408,763.3357 1408,753.3357 L1408,724.0638 " fill="#FEFECE" filter="url(#f1i9g8pesebz34)" style="stroke: #000000; stroke-width: 1.5;"/><path d="M1408,724.0638 C1408,734.0638 1456,734.0638 1456,734.0638 C1456,734.0638 1504,734.0638 1504,724.0638 " fill="none" style="stroke: #000000; stroke-width: 1.5;"/><text fill="#000000" font-family="sans-serif" font-size="14" lengthAdjust="spacingAndGlyphs" textLength="76" x="1418" y="754.3038">QMD 知识库</text><!--MD5=[ec48ced85c26a06b9919dbe5f9df6831]
entity Git--><path d="M1303,724.0638 C1303,714.0638 1338,714.0638 1338,714.0638 C1338,714.0638 1373,714.0638 1373,724.0638 L1373,753.3357 C1373,763.3357 1338,763.3357 1338,763.3357 C1338,763.3357 1303,763.3357 1303,753.3357 L1303,724.0638 " fill="#FEFECE" filter="url(#f1i9g8pesebz34)" style="stroke: #000000; stroke-width: 1.5;"/><path d="M1303,724.0638 C1303,734.0638 1338,734.0638 1338,734.0638 C1338,734.0638 1373,734.0638 1373,724.0638 " fill="none" style="stroke: #000000; stroke-width: 1.5;"/><text fill="#000000" font-family="sans-serif" font-size="14" lengthAdjust="spacingAndGlyphs" textLength="50" x="1313" y="754.3038">Git 仓库</text><!--MD5=[6111c61a7375762ae5da5c0ed8e64fef]
entity Cron--><rect fill="#FEFECE" filter="url(#f1i9g8pesebz34)" height="50.2719" style="stroke: #A80036; stroke-width: 1.5;" width="134" x="1579" y="391.5638"/><rect fill="#FEFECE" height="10" style="stroke: #A80036; stroke-width: 1.5;" width="15" x="1693" y="396.5638"/><rect fill="#FEFECE" height="2" style="stroke: #A80036; stroke-width: 1.5;" width="4" x="1691" y="398.5638"/><rect fill="#FEFECE" height="2" style="stroke: #A80036; stroke-width: 1.5;" width="4" x="1691" y="402.5638"/><text fill="#000000" font-family="sans-serif" font-size="14" lengthAdjust="spacingAndGlyphs" textLength="94" x="1594" y="427.8038">定时任务 (9 个)</text><!--MD5=[2d8efff2946d439c82a9e9362c77ddb1]
entity Heartbeat--><rect fill="#FEFECE" filter="url(#f1i9g8pesebz34)" height="50.2719" style="stroke: #A80036; stroke-width: 1.5;" width="144" x="1574" y="199.5638"/><rect fill="#FEFECE" height="10" style="stroke: #A80036; stroke-width: 1.5;" width="15" x="1698" y="204.5638"/><rect fill="#FEFECE" height="2" style="stroke: #A80036; stroke-width: 1.5;" width="4" x="1696" y="206.5638"/><rect fill="#FEFECE" height="2" style="stroke: #A80036; stroke-width: 1.5;" width="4" x="1696" y="210.5638"/><text fill="#000000" font-family="sans-serif" font-size="14" lengthAdjust="spacingAndGlyphs" textLength="104" x="1589" y="235.8038">HEARTBEAT.md</text><path d="M2630,535.0638 L2630,620.3599 L2734,620.3599 L2734,545.0638 L2724,535.0638 L2630,535.0638 " fill="#FBFB77" filter="url(#f1i9g8pesebz34)" style="stroke: #A80036; stroke-width: 1.0;"/><path d="M2724,535.0638 L2724,545.0638 L2734,545.0638 L2724,535.0638 " fill="#FBFB77" style="stroke: #A80036; stroke-width: 1.0;"/><text fill="#000000" font-family="sans-serif" font-size="13" lengthAdjust="spacingAndGlyphs" textLength="78" x="2636" y="555.1439">智能模型切换</text><text fill="#000000" font-family="sans-serif" font-size="13" lengthAdjust="spacingAndGlyphs" textLength="73" x="2636" y="573.9679">- 复杂度分析</text><text fill="#000000" font-family="sans-serif" font-size="13" lengthAdjust="spacingAndGlyphs" textLength="73" x="2636" y="592.7919">- 上下文监控</text><text fill="#000000" font-family="sans-serif" font-size="13" lengthAdjust="spacingAndGlyphs" textLength="83" x="2636" y="611.6159">- 6 种模型支持</text><path d="M2769,544.5638 L2769,611.0359 L2913,611.0359 L2913,554.5638 L2903,544.5638 L2769,544.5638 " fill="#FBFB77" filter="url(#f1i9g8pesebz34)" style="stroke: #A80036; stroke-width: 1.0;"/><path d="M2903,544.5638 L2903,554.5638 L2913,554.5638 L2903,544.5638 " fill="#FBFB77" style="stroke: #A80036; stroke-width: 1.0;"/><text fill="#000000" font-family="sans-serif" font-size="13" lengthAdjust="spacingAndGlyphs" textLength="123" x="2775" y="564.6439">Smart Memory Sync</text><text fill="#000000" font-family="sans-serif" font-size="13" lengthAdjust="spacingAndGlyphs" textLength="60" x="2775" y="583.4679">- 三库同步</text><text fill="#000000" font-family="sans-serif" font-size="13" lengthAdjust="spacingAndGlyphs" textLength="101" x="2775" y="602.2919">- 50/75/85% 阈值</text><path d="M832.5,696.0638 L832.5,781.3599 L983.5,781.3599 L983.5,706.0638 L973.5,696.0638 L832.5,696.0638 " fill="#FBFB77" filter="url(#f1i9g8pesebz34)" style="stroke: #A80036; stroke-width: 1.0;"/><path d="M973.5,696.0638 L973.5,706.0638 L983.5,706.0638 L973.5,696.0638 " fill="#FBFB77" style="stroke: #A80036; stroke-width: 1.0;"/><text fill="#000000" font-family="sans-serif" font-size="13" lengthAdjust="spacingAndGlyphs" textLength="130" x="838.5" y="716.1439">Context Manager v2.2</text><text fill="#000000" font-family="sans-serif" font-size="13" lengthAdjust="spacingAndGlyphs" textLength="89" x="838.5" y="734.9679">- 60% 阈值监控</text><text fill="#000000" font-family="sans-serif" font-size="13" lengthAdjust="spacingAndGlyphs" textLength="86" x="838.5" y="753.7919">- 每 5 分钟检查</text><text fill="#000000" font-family="sans-serif" font-size="13" lengthAdjust="spacingAndGlyphs" textLength="86" x="838.5" y="772.6159">- 无感会话切换</text><!--MD5=[9e3b35026cf1787a3ec020be3f7febf6]
link User to QQ--><path d="M417.09,139.8038 C407.75,156.0638 395.41,177.5538 385.57,194.6938 " fill="none" id="User-&gt;QQ" style="stroke: #A80036; stroke-width: 1.0;"/><polygon fill="#A80036" points="382.87,199.4038,390.8206,193.5911,385.3599,195.0679,383.8831,189.6072,382.87,199.4038" style="stroke: #A80036; stroke-width: 1.0;"/><!--MD5=[e6b6a8fafc6bc34a39c6c709aa33ec48]
link User to Feishu--><path d="M444.91,139.8038 C454.25,156.0638 466.59,177.5538 476.43,194.6938 " fill="none" id="User-&gt;Feishu" style="stroke: #A80036; stroke-width: 1.0;"/><polygon fill="#A80036" points="479.13,199.4038,478.1169,189.6072,476.6401,195.0679,471.1794,193.5911,479.13,199.4038" style="stroke: #A80036; stroke-width: 1.0;"/><!--MD5=[4285778dee2af61e862dfd20451db677]
link QQ to Session--><path d="M376.85,249.6238 C385.06,274.7888 398.305,315.3813 409.64,350.1188 C412.4738,358.8032 415.1881,367.1216 417.6746,374.7416 C418.9179,378.5516 420.1041,382.187 421.2199,385.6061 C421.7777,387.3157 422.318,388.9713 422.8389,390.5676 " fill="none" id="QQ-&gt;Session" style="stroke: #A80036; stroke-width: 1.0;"/><polygon fill="#A80036" points="422.8389,390.5676,423.8495,380.7707,421.2878,385.8142,416.2442,383.2524,422.8389,390.5676" style="stroke: #A80036; stroke-width: 1.0;"/><!--MD5=[dbf79df74107450e3edabe0696bb0954]
link Feishu to Session--><path d="M470.07,249.7438 C462.5,259.0238 454.8,270.1538 450,281.5638 C444.265,295.2113 440.2019,310.257 437.3352,325.186 C436.6185,328.9183 435.9766,332.6433 435.402,336.3373 C435.1147,338.1843 434.8443,340.0236 434.5898,341.8522 C434.5261,342.3093 434.4635,342.7658 434.4018,343.2216 C434.371,343.4494 434.3404,343.6771 434.3101,343.9047 " fill="none" id="Feishu-&gt;Session" style="stroke: #A80036; stroke-width: 1.0;"/><polygon fill="#A80036" points="434.3101,343.9047,439.4647,335.5124,434.971,338.9485,431.5349,334.4549,434.3101,343.9047" style="stroke: #A80036; stroke-width: 1.0;"/><!--MD5=[c293248a6128fce8932b28661811db66]
link Session to ModelSwitch--><path d="M422.5948,418.0806 C420.9267,418.1894 419.028,418.316 416.9143,418.4612 C408.4595,419.0418 396.5659,419.9189 382.2455,421.1371 C353.6047,423.5735 315.2569,427.3745 275.2988,432.8976 C195.3825,443.9438 109.025,461.8788 81,489.5638 C77.535,492.9863 74.635,496.8838 72.2134,501.0876 C71.608,502.1386 71.0325,503.2087 70.4856,504.2953 C70.3488,504.5669 70.2139,504.8396 70.0807,505.1133 C70.0141,505.2501 69.948,505.3872 69.8822,505.5245 " fill="none" id="Session-&gt;ModelSwitch" style="stroke: #A80036; stroke-width: 1.0;"/><polygon fill="#A80036" points="69.8822,505.5245,77.3753,499.1328,72.0405,501.0143,70.159,495.6795,69.8822,505.5245" style="stroke: #A80036; stroke-width: 1.0;"/><!--MD5=[c1b2e20da24a365f251fe923ed146651]
link ModelSwitch to Tools--><path d="M62,627.2327 C62,627.5125 62,627.7929 62,628.074 C62,628.636 62,629.2003 62,629.7669 C62,638.8321 62,648.462 62,658.0913 C62,660.4987 62,662.906 62,665.3045 C62,665.6043 62,665.9039 62,666.2034 " fill="none" id="ModelSwitch-&gt;Tools" style="stroke: #A80036; stroke-width: 1.0;"/><polygon fill="#A80036" points="62,666.2034,66,657.2034,62,661.2034,58,657.2034,62,666.2034" style="stroke: #A80036; stroke-width: 1.0;"/><!--MD5=[c25df816112aaaa9ff8ea6d0897dcca8]
link Session to SMS--><path d="M437.7113,465.6082 C437.7581,465.7102 437.8052,465.8119 437.8525,465.9136 C438.042,466.3201 438.2362,466.7239 438.4354,467.1249 C438.8337,467.9269 439.2516,468.7174 439.69,469.4942 C440.567,471.048 441.5261,472.5474 442.5747,473.9759 C444.672,476.8329 447.1275,479.4063 450,481.5638 C464.44,492.4038 1732.76,484.2038 1750,489.5638 C1787.75,501.3038 1824.39,528.2838 1848.72,549.1138 " fill="none" id="Session-&gt;SMS" style="stroke: #A80036; stroke-width: 1.0;"/><polygon fill="#A80036" points="1852.52,552.4038,1848.3257,543.4927,1848.7368,549.1346,1843.095,549.5458,1852.52,552.4038" style="stroke: #A80036; stroke-width: 1.0;"/><!--MD5=[4fadfb925fea80a270a31c5162088a76]
link Session to SMMS--><path d="M437.9197,465.8258 C438.1086,466.233 438.3021,466.6378 438.5006,467.0397 C438.8974,467.8435 439.3137,468.6361 439.7503,469.4154 C440.6235,470.974 441.578,472.4794 442.6211,473.9152 C444.7072,476.7868 447.1475,479.3801 450,481.5638 C464.39,492.5738 757.92,488.4438 776,489.5638 C1060.76,507.2738 1396.36,545.8738 1554.64,565.1438 " fill="none" id="Session-&gt;SMMS" style="stroke: #A80036; stroke-width: 1.0;"/><polygon fill="#A80036" points="1559.74,565.7638,1551.2859,560.7114,1554.7762,565.163,1550.3246,568.6534,1559.74,565.7638" style="stroke: #A80036; stroke-width: 1.0;"/><!--MD5=[0eb02dcbe390e7e29f499c9e85f838a8]
link Session to ContextMgr--><path d="M428.8573,466.2327 C428.845,466.5125 428.8327,466.7929 428.8203,467.074 C428.7956,467.636 428.7707,468.2003 428.7458,468.7669 C428.3468,477.8321 427.9228,487.462 427.4988,497.0913 C427.3927,499.4987 427.2867,501.906 427.1811,504.3045 C427.1679,504.6043 427.1547,504.9039 427.1415,505.2034 " fill="none" id="Session-&gt;ContextMgr" style="stroke: #A80036; stroke-width: 1.0;"/><polygon fill="#A80036" points="427.1415,505.2034,431.5336,496.3882,427.3615,500.2083,423.5414,496.0361,427.1415,505.2034" style="stroke: #A80036; stroke-width: 1.0;"/><!--MD5=[c4268af15a439339db16889c59582ab6]
link ContextMgr to LongTerm--><path d="M430.7292,626.582 C430.7759,626.684 430.823,626.7859 430.8703,626.8876 C431.0595,627.2943 431.2536,627.6985 431.4525,628.0998 C431.8504,628.9023 432.2678,629.6935 432.7057,630.4711 C433.5816,632.0263 434.5395,633.5276 435.5866,634.9583 C437.6809,637.8196 440.1325,640.3988 443,642.5638 C458.65,654.3838 1131.42,641.8638 1149,650.5638 C1173.76,662.8138 1192.19,688.8338 1203.57,709.2438 " fill="none" id="ContextMgr-&gt;LongTerm" style="stroke: #A80036; stroke-width: 1.0;"/><polygon fill="#A80036" points="1206.04,713.7738,1205.2531,703.9565,1203.6508,709.3816,1198.2256,707.7793,1206.04,713.7738" style="stroke: #A80036; stroke-width: 1.0;"/><!--MD5=[78843c7d905c68b2afa576b6006e5e14]
link ContextMgr to Daily--><path d="M430.7417,626.5654 C430.7884,626.6675 430.8353,626.7694 430.8826,626.8711 C431.0718,627.278 431.2657,627.6823 431.4645,628.0837 C431.8621,628.8867 432.2793,629.6782 432.7169,630.4562 C433.5921,632.0124 434.5491,633.5147 435.5952,634.9468 C437.6875,637.8109 440.1363,640.3938 443,642.5638 C467.71,661.2838 972.95,637.3538 1001,650.5638 C1026.96,662.7938 1047.22,688.9938 1059.92,709.4638 " fill="none" id="ContextMgr-&gt;Daily" style="stroke: #A80036; stroke-width: 1.0;"/><polygon fill="#A80036" points="1062.52,713.7338,1061.2573,703.9663,1059.9203,709.4628,1054.4237,708.1258,1062.52,713.7338" style="stroke: #A80036; stroke-width: 1.0;"/><!--MD5=[c144435ec6ff621368432260f7274fd1]
link SMMS to QMDB--><path d="M1608.56,602.8138 C1588.79,616.1538 1564.44,633.4438 1544,650.5638 C1521.8,669.1538 1498.58,692.2938 1481.57,710.0338 " fill="none" id="SMMS-&gt;QMDB" style="stroke: #A80036; stroke-width: 1.0;"/><polygon fill="#A80036" points="1477.82,713.9638,1486.9316,710.225,1481.2761,710.3506,1481.1504,704.6952,1477.82,713.9638" style="stroke: #A80036; stroke-width: 1.0;"/><!--MD5=[c54bb93ed4763d9660abf91c5ff76742]
link SMMS to Git--><path d="M1559.71,586.8338 C1506.65,595.5738 1439.73,613.5638 1391,650.5638 C1371.39,665.4538 1357.44,689.8738 1348.79,709.0538 " fill="none" id="SMMS-&gt;Git" style="stroke: #A80036; stroke-width: 1.0;"/><polygon fill="#A80036" points="1346.7,713.8138,1353.972,707.1717,1348.7041,709.2331,1346.6427,703.9651,1346.7,713.8138" style="stroke: #A80036; stroke-width: 1.0;"/><!--MD5=[5289a3382c8877add211f026e10af9c3]
link Cron to SMS--><path d="M1681.24,441.7138 C1723.6,470.7438 1794.5,519.3338 1838.63,549.5838 " fill="none" id="Cron-&gt;SMS" style="stroke: #A80036; stroke-width: 1.0;"/><polygon fill="#A80036" points="1842.81,552.4538,1837.6462,544.0672,1838.6852,549.6279,1833.1246,550.6669,1842.81,552.4538" style="stroke: #A80036; stroke-width: 1.0;"/><!--MD5=[1c5d567951c7a1fc96a23f6e9357fe91]
link Cron to ContextMgr--><path d="M1578.88,423.5638 C1432,436.4538 1071.02,466.8038 768,481.5638 C758.98,482.0038 449.96,483.8138 443,489.5638 C439.245,492.6651 436.1264,496.3204 433.5445,500.3465 C432.899,501.353 432.287,502.3827 431.707,503.4327 C431.4171,503.9577 431.1351,504.4878 430.8609,505.0226 C430.7923,505.1563 430.7243,505.2902 430.6567,505.4245 " fill="none" id="Cron-&gt;ContextMgr" style="stroke: #A80036; stroke-width: 1.0;"/><polygon fill="#A80036" points="430.6567,505.4245,438.2755,499.1832,432.9043,500.9582,431.1293,495.587,430.6567,505.4245" style="stroke: #A80036; stroke-width: 1.0;"/><!--MD5=[78d05a7180938b0e0319acb80e5710c1]
link Cron to SMMS--><path d="M1646,441.7138 C1646,470.0438 1646,516.9938 1646,547.3538 " fill="none" id="Cron-&gt;SMMS" style="stroke: #A80036; stroke-width: 1.0;"/><polygon fill="#A80036" points="1646,552.4538,1650,543.4538,1646,547.4538,1642,543.4538,1646,552.4538" style="stroke: #A80036; stroke-width: 1.0;"/><!--MD5=[0a1d0080eae67ff5c1fb6c63c1871636]
link Heartbeat to Cron--><path d="M1646,249.6238 C1646,284.3638 1646,348.5038 1646,386.0538 " fill="none" id="Heartbeat-&gt;Cron" style="stroke: #A80036; stroke-width: 1.0;"/><polygon fill="#A80036" points="1646,391.3938,1650,382.3938,1646,386.3938,1642,382.3938,1646,391.3938" style="stroke: #A80036; stroke-width: 1.0;"/><!--MD5=[20c41d16dc907ea711cf67d8e82541b5]
link ModelSwitch to GMN59--><path d="M70.1684,505.2524 C70.2331,505.118 70.2983,504.9839 70.3638,504.85 C70.4949,504.5821 70.6277,504.3153 70.7621,504.0494 C71.2999,502.9857 71.8646,501.9377 72.4574,500.9076 C74.8286,496.7874 77.65,492.9551 81,489.5638 C86.61,483.8838 90.57,486.4538 98.5,485.5638 C132.93,481.6738 2559.07,481.6738 2593.5,485.5638 C2601.43,486.4538 2604.23,485.3338 2611,489.5638 C2629.15,500.9038 2644.71,518.5338 2656.61,535.0538 " fill="none" id="ModelSwitch-GMN59" style="stroke: #A80036; stroke-width: 1.0; stroke-dasharray: 7.0,7.0;"/><!--MD5=[f7f12a0c0ee87c882658931a2fbc8675]
link GMN62 to SMMS--><path d="M2815.54,544.4738 C2799.32,525.6438 2776.76,503.1638 2752,489.5638 C2745.01,485.7238 2742.43,486.4538 2734.5,485.5638 C2707.81,482.5538 1794.19,482.5538 1767.5,485.5638 C1724.38,490.4338 1686.64,526.8138 1665.09,552.3438 " fill="none" id="GMN62-SMMS" style="stroke: #A80036; stroke-width: 1.0; stroke-dasharray: 7.0,7.0;"/><!--MD5=[feec04f6e9ba9ed88c447c825570629f]
link ContextMgr to GMN65--><path d="M431.8812,626.6264 C431.9746,626.8328 432.0691,627.0387 432.1647,627.244 C432.5469,628.0654 432.9465,628.8781 433.3642,629.6801 C434.1995,631.2842 435.1071,632.8459 436.0932,634.35 C438.0653,637.3582 440.3513,640.1363 443,642.5638 C498.96,693.8538 715.24,720.5238 832.08,731.4438 " fill="none" id="ContextMgr-GMN65" style="stroke: #A80036; stroke-width: 1.0; stroke-dasharray: 7.0,7.0;"/><!--MD5=[5f278068fe239b1b0703d34815ce3001]
link FileTools to ShellTools--><!--MD5=[27a1cb7045df4732311c3e7eabfc58ec]
link FileTools to WebTools--><!--MD5=[57008e02a4a92487887ee9b945ea9525]
link WebTools to Browser--><!--MD5=[a369cc8c40ae85e7ce7ba478da37cae8]
link SMSW to ICE--><!--MD5=[8c92d9ab0795085beb293d4487268426]
link ICE to QR--><!--MD5=[771c9f41ac5d58bf38e3cf1c566bca6c]
link SMSW to SR--><!--MD5=[168a5920727f71216d300a277970b839]
link SR to PS--><!--MD5=[835a66d90800ee5547810928999f9b33]
link PS to AW--><!--MD5=[40d65c2fc19888197d0255aab3ca6706]
link SR to QMD--><!--MD5=[875d803b979c95dc1fa59f4d4cac5811]
link QMD to Notion--><!--MD5=[b246a0db9fadfeffbf73f34321ff5cdb]
link Notion to Obsidian--><text fill="#888888" font-family="sans-serif" font-size="10" lengthAdjust="spacingAndGlyphs" textLength="76" x="1427.5" y="984.6638">2026-03-10 绘制</text><!--MD5=[f289c8c9ab33b588813c0cff4f757931]
@startuml OpenClaw 系统架构图
title OpenClaw 系统架构 - 米粒儿配置版
footer 2026-03-10 绘制

skinparam backgroundColor #EEEBDC
skinparam componentStyle uml2

package "用户层" {
  [官家] as User
  [QQ Bot] as QQ
  [飞书 Bot] as Feishu
}

package "OpenClaw Gateway" {
  
  component "会话管理" as Session {
    [主会话 main] as MainSession
    [工作会话 work] as WorkSession
  }
  
  component "智能模型切换" as ModelSwitch {
    [复杂度分析] as Complexity
    [上下文监控] as ContextMonitor
  }
  
  component "工具系统" as Tools {
    [read/write/edit] as FileTools
    [exec/process] as ShellTools
    [web_search/web_fetch] as WebTools
    [browser] as Browser
  }
  
  component "Context Manager v2.2" as ContextMgr {
    [上下文监控 60%] as UsageMonitor
    [会话自动切换] as AutoSwitch
  }
}

package "技能系统 (21 个)" {
  
  component "session-memory-enhanced" as SMS
  component "smart-memory-sync" as SMMS
  component "smart-model-switch" as SMSW
  component "image-content-extractor" as ICE
  component "quote-reader" as QR
  component "speech-recognition" as SR
  component "playwright-scraper" as PS
  component "automation-workflows" as AW
  component "qmd" as QMD
  component "notion" as Notion
  component "obsidian" as Obsidian
}

package "记忆系统" {
  
  database "MEMORY.md" as LongTerm
  database "memory/*.md" as Daily
  database "QMD 知识库" as QMDB
  database "Git 仓库" as Git
}

package "自动化系统" {
  
  component "定时任务 (9 个)" as Cron
  component "HEARTBEAT.md" as Heartbeat
}

User - -> QQ
User - -> Feishu
QQ - -> Session
Feishu - -> Session

Session - -> ModelSwitch
ModelSwitch - -> Tools
Session - -> SMS
Session - -> SMMS

Session - -> ContextMgr
ContextMgr - -> LongTerm
ContextMgr - -> Daily
SMMS - -> QMDB
SMMS - -> Git

Cron - -> SMS
Cron - -> ContextMgr
Cron - -> SMMS
Heartbeat - -> Cron

note right of ModelSwitch
  智能模型切换
  - 复杂度分析
  - 上下文监控
  - 6 种模型支持
end note

note left of SMMS
  Smart Memory Sync
  - 三库同步
  - 50/75/85% 阈值
end note

note bottom of ContextMgr
  Context Manager v2.2
  - 60% 阈值监控
  - 每 5 分钟检查
  - 无感会话切换
end note

@enduml

PlantUML version 1.2020.02(Sun Mar 01 18:22:07 CST 2020)
(GPL source distribution)
Java Runtime: OpenJDK Runtime Environment
JVM: OpenJDK 64-Bit Server VM
Java Version: 21.0.10+7-Ubuntu-124.04
Operating System: Linux
Default Encoding: UTF-8
Language: zh
Country: CN
--></g></svg>